<svg xmlns="http://www.w3.org/2000/svg" xmlns:xlink="http://www.w3.org/1999/xlink" width="690" height="559.33"><rect width="690" height="559.33" rx="5" ry="5" class="a"/><svg y="0%" x="0%"><circle cx="20" cy="20" r="6" fill="#ff5f58"/><circle cx="40" cy="20" r="6" fill="#ffbd2e"/><circle cx="60" cy="20" r="6" fill="#18c132"/></svg><svg height="499.33" viewBox="0 0 65 49.933" width="650" x="15" xmlns="http://www.w3.org/2000/svg" xmlns:xlink="http://www.w3.org/1999/xlink" y="50"><style>@keyframes p{0%{transform:translateX(0)}4.47%{transform:translateX(-65px)}4.57%{transform:translateX(-130px)}4.61%{transform:translateX(-195px)}4.65%{transform:translateX(-390px)}4.68%{transform:translateX(-455px)}4.71%{transform:translateX(-520px)}4.8%{transform:translateX(-585px)}9.41%{transform:translateX(-715px)}9.79%{transform:translateX(-780px)}10.27%{transform:translateX(-845px)}10.72%{transform:translateX(-910px)}12.79%{transform:translateX(-1105px)}13.42%{transform:translateX(-1235px)}13.92%{transform:translateX(-1300px)}13.95%{transform:translateX(-1365px)}13.99%{transform:translateX(-1560px)}14.02%{transform:translateX(-1625px)}14.11%{transform:translateX(-1690px)}19.27%{transform:translateX(-1755px)}19.28%{transform:translateX(-1820px)}19.73%{transform:translateX(-1885px)}20.18%{transform:translateX(-1950px)}20.68%{transform:translateX(-2015px)}22.77%{transform:translateX(-2080px)}22.78%{transform:translateX(-2145px)}24.24%{transform:translateX(-2210px)}24.75%{transform:translateX(-2340px)}25.17%{transform:translateX(-2405px)}25.66%{transform:translateX(-2470px)}28.57%{transform:translateX(-2535px)}28.58%{transform:translateX(-2665px)}29.22%{transform:translateX(-2795px)}29.71%{transform:translateX(-2860px)}29.75%{transform:translateX(-2925px)}29.8%{transform:translateX(-3120px)}29.83%{transform:translateX(-3185px)}29.92%{transform:translateX(-3250px)}38.01%{transform:translateX(-3380px)}38.97%{transform:translateX(-3445px)}39.64%{transform:translateX(-3510px)}41.3%{transform:translateX(-3575px)}44.51%{transform:translateX(-3640px)}45.47%{transform:translateX(-3705px)}46.41%{transform:translateX(-3770px)}47.38%{transform:translateX(-3835px)}47.96%{transform:translateX(-3900px)}48.24%{transform:translateX(-3965px)}49.84%{transform:translateX(-4030px)}51.22%{transform:translateX(-4095px)}51.65%{transform:translateX(-4160px)}54.48%{transform:translateX(-4225px)}55.18%{transform:translateX(-4290px)}55.75%{transform:translateX(-4355px)}56.75%{transform:translateX(-4420px)}57.22%{transform:translateX(-4485px)}57.66%{transform:translateX(-4550px)}60.03%{transform:translateX(-4615px)}60.04%{transform:translateX(-4680px)}60.05%{transform:translateX(-4745px)}60.67%{transform:translateX(-4875px)}66.7%{transform:translateX(-4940px)}70.36%{transform:translateX(-5070px)}70.95%{transform:translateX(-5135px)}70.99%{transform:translateX(-5200px)}71.03%{transform:translateX(-5395px)}71.06%{transform:translateX(-5460px)}71.15%{transform:translateX(-5525px)}80.94%{transform:translateX(-5590px)}80.95%{transform:translateX(-5655px)}81.26%{transform:translateX(-5720px)}81.67%{transform:translateX(-5785px)}82.07%{transform:translateX(-5850px)}84.16%{transform:translateX(-6110px)}84.81%{transform:translateX(-6240px)}85.31%{transform:translateX(-6305px)}85.35%{transform:translateX(-6370px)}85.39%{transform:translateX(-6435px)}85.4%{transform:translateX(-6565px)}85.42%{transform:translateX(-6630px)}85.51%{transform:translateX(-6695px)}to{transform:translateX(-6760px)}}.a{fill:#282d35}.f,.g,.h,.i{fill:#9580ff;white-space:pre}.g,.h,.i{fill:#8aff80}.h,.i{fill:#a8cc8c}.i{fill:#6f7783}.j,.k{fill:#b9c0cb}.j{white-space:pre}.k{font-weight:700}.k,.l,.m,.r{white-space:pre}.l{fill:#b9c0cb;text-decoration:underline}.m,.r{fill:#ffff80}.r{fill:#e88388;font-weight:700}</style><g font-family="Monaco,Consolas,Menlo,'Bitstream Vera Sans Mono','Powerline Symbols',monospace" font-size="1.67"><defs><symbol id="1"><text y="1.67" class="f">~</text></symbol><symbol id="2"><text y="1.67" class="g">→</text></symbol><symbol id="3"><text y="1.67" class="g">→</text><text x="2.004" y="1.67" class="h">g</text></symbol><symbol id="4"><text y="1.67" class="g">→</text><text x="2.004" y="1.67" class="h">g</text><text x="3.006" y="1.67" class="i">oto</text></symbol><symbol id="5"><text y="1.67" class="g">→</text><text x="2.004" y="1.67" class="h">go</text><text x="4.008" y="1.67" class="i">to</text></symbol><symbol id="6"><text y="1.67" class="g">→</text><text x="2.004" y="1.67" class="h">goto</text></symbol><symbol id="7"><text y="1.67" class="j">Changed</text><text x="8.016" y="1.67" class="j">directory</text><text x="18.036" y="1.67" class="j">to</text><text x="21.042" y="1.67" class="k">/Users/andrew/dev</text></symbol><symbol id="8"><text y="1.67" class="f">~/dev</text></symbol><symbol id="9"><text y="1.67" class="g">→</text><text x="2.004" y="1.67" class="h">goto</text><text x="7.014" y="1.67" class="l">goto</text></symbol><symbol id="10"><text y="1.67" class="j">Changed</text><text x="8.016" y="1.67" class="j">directory</text><text x="18.036" y="1.67" class="j">to</text><text x="21.042" y="1.67" class="k">/Users/andrew/dev/goto</text></symbol><symbol id="11"><text y="1.67" class="f">~/dev/goto</text></symbol><symbol id="12"><text y="1.67" class="f">~/dev/goto</text><text x="11.022" y="1.67" class="m">-&gt;</text><text x="14.028" y="1.67" class="f">master</text></symbol><symbol id="13"><text y="1.67" class="g">→</text><text x="2.004" y="1.67" class="h">goto</text><text x="7.014" y="1.67" class="i">goto</text></symbol><symbol id="14"><text y="1.67" class="g">→</text><text x="2.004" y="1.67" class="h">goto</text><text x="7.014" y="1.67" class="j">debug-js/debug</text></symbol><symbol id="15"><text y="1.67" class="j">No</text><text x="3.006" y="1.67" class="j">paths</text><text x="9.018" y="1.67" class="j">found</text><text x="15.03" y="1.67" class="j">for</text><text x="19.038" y="1.67" class="k">debug-js/debug</text></symbol><symbol id="16"><text y="1.67" class="j">Found</text><text x="6.012" y="1.67" class="j">github</text><text x="13.026" y="1.67" class="j">repo</text><text x="18.036" y="1.67" class="k">debug-js/debug</text><text x="32.064" y="1.67" class="j">,</text><text x="34.068" y="1.67" class="j">cloning...</text></symbol><symbol id="17"><text y="1.67" class="j">Changed</text><text x="8.016" y="1.67" class="j">directory</text><text x="18.036" y="1.67" class="j">to</text><text x="21.042" y="1.67" class="k">/Users/andrew/dev/debug-js/debug</text></symbol><symbol id="18"><text y="1.67" class="f">~/dev/debug-js/debug</text></symbol><symbol id="19"><text y="1.67" class="f">~/dev/debug-js/debug</text><text x="21.042" y="1.67" class="m">-&gt;</text><text x="24.048" y="1.67" class="f">master</text></symbol><symbol id="a"><path fill="transparent" d="M0 0h65v23H0z"/></symbol><symbol id="b"><path fill="#6f7683" d="M0 0h1.102v2.171H0z"/></symbol></defs><path class="a" d="M0 0h65v49.933H0z"/><g style="animation-duration:25.556991s;animation-iteration-count:infinite;animation-name:p;animation-timing-function:steps(1,end)"><svg width="6825"><svg><use xlink:href="#a"/><use xlink:href="#b" x="-.004"/></svg><svg x="65"><use xlink:href="#a"/><use xlink:href="#b" x="-.004"/></svg><svg x="130"><use xlink:href="#a"/><use xlink:href="#b" x="-.004"/></svg><svg x="195"><use xlink:href="#a"/><use xlink:href="#b" x="-.004"/></svg><svg x="260"><use xlink:href="#a"/><use xlink:href="#b" x="1.996" y="4.317"/><use xlink:href="#1" y="2.171"/><use xlink:href="#2" y="4.342"/></svg><svg x="325"><use xlink:href="#a"/><use xlink:href="#b" x="1.996" y="4.317"/><use xlink:href="#1" y="2.171"/><use xlink:href="#2" y="4.342"/></svg><svg x="390"><use xlink:href="#a"/><use xlink:href="#b" x="1.996" y="4.317"/><use xlink:href="#1" y="2.171"/><use xlink:href="#2" y="4.342"/></svg><svg x="455"><use xlink:href="#a"/><use xlink:href="#b" x="1.996" y="4.317"/><use xlink:href="#1" y="2.171"/><use xlink:href="#2" y="4.342"/></svg><svg x="520"><use xlink:href="#a"/><use xlink:href="#b" x="1.996" y="4.317"/><use xlink:href="#1" y="2.171"/><use xlink:href="#2" y="4.342"/></svg><svg x="585"><use xlink:href="#a"/><use xlink:href="#b" x="1.996" y="4.317"/><use xlink:href="#1" y="2.171"/><use xlink:href="#2" y="4.342"/></svg><svg x="650"><use xlink:href="#a"/><use xlink:href="#b" x="2.996" y="4.317"/><use xlink:href="#1" y="2.171"/><use xlink:href="#3" y="4.342"/></svg><svg x="715"><use xlink:href="#a"/><use xlink:href="#b" x="2.996" y="4.317"/><use xlink:href="#1" y="2.171"/><use xlink:href="#4" y="4.342"/></svg><svg x="780"><use xlink:href="#a"/><use xlink:href="#b" x="3.996" y="4.317"/><use xlink:href="#1" y="2.171"/><use xlink:href="#5" y="4.342"/></svg><svg x="845"><use xlink:href="#a"/><use xlink:href="#b" x="4.996" y="4.317"/><use xlink:href="#1" y="2.171"/><text y="6.012" class="g">→</text><text x="2.004" y="6.012" class="r">got</text><text x="5.01" y="6.012" class="i">o</text></svg><svg x="910"><use xlink:href="#a"/><use xlink:href="#b" x="5.996" y="4.317"/><use xlink:href="#1" y="2.171"/><use xlink:href="#6" y="4.342"/></svg><svg x="975"><use xlink:href="#a"/><use xlink:href="#b" x="5.996" y="4.317"/><use xlink:href="#1" y="2.171"/><use xlink:href="#6" y="4.342"/></svg><svg x="1040"><use xlink:href="#a"/><use xlink:href="#b" x="-.004" y="6.488"/><use xlink:href="#1" y="2.171"/><use xlink:href="#6" y="4.342"/></svg><svg x="1105"><use xlink:href="#a"/><use xlink:href="#b" x="-.004" y="6.488"/><use xlink:href="#1" y="2.171"/><use xlink:href="#6" y="4.342"/></svg><svg x="1170"><use xlink:href="#a"/><use xlink:href="#b" x="38.996" y="6.488"/><use xlink:href="#1" y="2.171"/><use xlink:href="#6" y="4.342"/><use xlink:href="#7" y="6.513"/></svg><svg x="1235"><use xlink:href="#a"/><use xlink:href="#b" x="-.004" y="8.659"/><use xlink:href="#1" y="2.171"/><use xlink:href="#6" y="4.342"/><use xlink:href="#7" y="6.513"/></svg><svg x="1300"><use xlink:href="#a"/><use xlink:href="#b" x="-.004" y="8.659"/><use xlink:href="#1" y="2.171"/><use xlink:href="#6" y="4.342"/><use xlink:href="#7" y="6.513"/></svg><svg x="1365"><use xlink:href="#a"/><use xlink:href="#b" x="-.004" y="8.659"/><use xlink:href="#1" y="2.171"/><use xlink:href="#6" y="4.342"/><use xlink:href="#7" y="6.513"/></svg><svg x="1430"><use xlink:href="#a"/><use xlink:href="#b" x="1.996" y="13.001"/><use xlink:href="#1" y="2.171"/><use xlink:href="#6" y="4.342"/><use xlink:href="#7" y="6.513"/><use xlink:href="#8" y="10.855"/><use xlink:href="#2" y="13.026"/></svg><svg x="1495"><use xlink:href="#a"/><use xlink:href="#b" x="1.996" y="13.001"/><use xlink:href="#1" y="2.171"/><use xlink:href="#6" y="4.342"/><use xlink:href="#7" y="6.513"/><use xlink:href="#8" y="10.855"/><use xlink:href="#2" y="13.026"/></svg><svg x="1560"><use xlink:href="#a"/><use xlink:href="#b" x="1.996" y="13.001"/><use xlink:href="#1" y="2.171"/><use xlink:href="#6" y="4.342"/><use xlink:href="#7" y="6.513"/><use xlink:href="#8" y="10.855"/><use xlink:href="#2" y="13.026"/></svg><svg x="1625"><use xlink:href="#a"/><use xlink:href="#b" x="1.996" y="13.001"/><use xlink:href="#1" y="2.171"/><use xlink:href="#6" y="4.342"/><use xlink:href="#7" y="6.513"/><use xlink:href="#8" y="10.855"/><use xlink:href="#2" y="13.026"/></svg><svg x="1690"><use xlink:href="#a"/><use xlink:href="#b" x="1.996" y="13.001"/><use xlink:href="#1" y="2.171"/><use xlink:href="#6" y="4.342"/><use xlink:href="#7" y="6.513"/><use xlink:href="#8" y="10.855"/><use xlink:href="#2" y="13.026"/></svg><svg x="1755"><use xlink:href="#a"/><use xlink:href="#b" x="2.996" y="13.001"/><use xlink:href="#1" y="2.171"/><use xlink:href="#6" y="4.342"/><use xlink:href="#7" y="6.513"/><use xlink:href="#8" y="10.855"/><use xlink:href="#3" y="13.026"/></svg><svg x="1820"><use xlink:href="#a"/><use xlink:href="#b" x="2.996" y="13.001"/><use xlink:href="#1" y="2.171"/><use xlink:href="#6" y="4.342"/><use xlink:href="#7" y="6.513"/><use xlink:href="#8" y="10.855"/><use xlink:href="#4" y="13.026"/></svg><svg x="1885"><use xlink:href="#a"/><use xlink:href="#b" x="3.996" y="13.001"/><use xlink:href="#1" y="2.171"/><use xlink:href="#6" y="4.342"/><use xlink:href="#7" y="6.513"/><use xlink:href="#8" y="10.855"/><use xlink:href="#5" y="13.026"/></svg><svg x="1950"><use xlink:href="#a"/><use xlink:href="#b" x="4.996" y="13.001"/><use xlink:href="#1" y="2.171"/><use xlink:href="#6" y="4.342"/><use xlink:href="#7" y="6.513"/><use xlink:href="#8" y="10.855"/><text y="14.696" class="g">→</text><text x="2.004" y="14.696" class="l">got</text><text x="5.01" y="14.696" class="i">o</text></svg><svg x="2015"><use xlink:href="#a"/><use xlink:href="#b" x="5.996" y="13.001"/><use xlink:href="#1" y="2.171"/><use xlink:href="#6" y="4.342"/><use xlink:href="#7" y="6.513"/><use xlink:href="#8" y="10.855"/><use xlink:href="#6" y="13.026"/></svg><svg x="2080"><use xlink:href="#a"/><use xlink:href="#b" x="6.996" y="13.001"/><use xlink:href="#1" y="2.171"/><use xlink:href="#6" y="4.342"/><use xlink:href="#7" y="6.513"/><use xlink:href="#8" y="10.855"/><use xlink:href="#6" y="13.026"/></svg><svg x="2145"><use xlink:href="#a"/><use xlink:href="#b" x="6.996" y="13.001"/><use xlink:href="#1" y="2.171"/><use xlink:href="#6" y="4.342"/><use xlink:href="#7" y="6.513"/><use xlink:href="#8" y="10.855"/><text y="14.696" class="g">→</text><text x="2.004" y="14.696" class="h">goto</text><text x="7.014" y="14.696" class="i">github/docs</text></svg><svg x="2210"><use xlink:href="#a"/><use xlink:href="#b" x="7.996" y="13.001"/><use xlink:href="#1" y="2.171"/><use xlink:href="#6" y="4.342"/><use xlink:href="#7" y="6.513"/><use xlink:href="#8" y="10.855"/><text y="14.696" class="g">→</text><text x="2.004" y="14.696" class="h">goto</text><text x="7.014" y="14.696" class="l">g</text><text x="8.016" y="14.696" class="i">ithub/docs</text></svg><svg x="2275"><use xlink:href="#a"/><use xlink:href="#b" x="8.996" y="13.001"/><use xlink:href="#1" y="2.171"/><use xlink:href="#6" y="4.342"/><use xlink:href="#7" y="6.513"/><use xlink:href="#8" y="10.855"/><text y="14.696" class="g">→</text><text x="2.004" y="14.696" class="h">goto</text><text x="7.014" y="14.696" class="l">go</text></svg><svg x="2340"><use xlink:href="#a"/><use xlink:href="#b" x="8.996" y="13.001"/><use xlink:href="#1" y="2.171"/><use xlink:href="#6" y="4.342"/><use xlink:href="#7" y="6.513"/><use xlink:href="#8" y="10.855"/><text y="14.696" class="g">→</text><text x="2.004" y="14.696" class="h">goto</text><text x="7.014" y="14.696" class="l">go</text><text x="9.018" y="14.696" class="i">to</text></svg><svg x="2405"><use xlink:href="#a"/><use xlink:href="#b" x="9.996" y="13.001"/><use xlink:href="#1" y="2.171"/><use xlink:href="#6" y="4.342"/><use xlink:href="#7" y="6.513"/><use xlink:href="#8" y="10.855"/><text y="14.696" class="g">→</text><text x="2.004" y="14.696" class="h">goto</text><text x="7.014" y="14.696" class="l">got</text><text x="10.02" y="14.696" class="i">o</text></svg><svg x="2470"><use xlink:href="#a"/><use xlink:href="#b" x="10.996" y="13.001"/><use xlink:href="#1" y="2.171"/><use xlink:href="#6" y="4.342"/><use xlink:href="#7" y="6.513"/><use xlink:href="#8" y="10.855"/><use xlink:href="#9" y="13.026"/></svg><svg x="2535"><use xlink:href="#a"/><use xlink:href="#b" x="10.996" y="13.001"/><use xlink:href="#1" y="2.171"/><use xlink:href="#6" y="4.342"/><use xlink:href="#7" y="6.513"/><use xlink:href="#8" y="10.855"/><use xlink:href="#9" y="13.026"/></svg><svg x="2600"><use xlink:href="#a"/><use xlink:href="#b" x="-.004" y="15.172"/><use xlink:href="#1" y="2.171"/><use xlink:href="#6" y="4.342"/><use xlink:href="#7" y="6.513"/><use xlink:href="#8" y="10.855"/><use xlink:href="#9" y="13.026"/></svg><svg x="2665"><use xlink:href="#a"/><use xlink:href="#b" x="-.004" y="15.172"/><use xlink:href="#1" y="2.171"/><use xlink:href="#6" y="4.342"/><use xlink:href="#7" y="6.513"/><use xlink:href="#8" y="10.855"/><use xlink:href="#9" y="13.026"/></svg><svg x="2730"><use xlink:href="#a"/><use xlink:href="#b" x="43.996" y="15.172"/><use xlink:href="#1" y="2.171"/><use xlink:href="#6" y="4.342"/><use xlink:href="#7" y="6.513"/><use xlink:href="#8" y="10.855"/><use xlink:href="#9" y="13.026"/><use xlink:href="#10" y="15.197"/></svg><svg x="2795"><use xlink:href="#a"/><use xlink:href="#b" x="-.004" y="17.343"/><use xlink:href="#1" y="2.171"/><use xlink:href="#6" y="4.342"/><use xlink:href="#7" y="6.513"/><use xlink:href="#8" y="10.855"/><use xlink:href="#9" y="13.026"/><use xlink:href="#10" y="15.197"/></svg><svg x="2860"><use xlink:href="#a"/><use xlink:href="#b" x="-.004" y="17.343"/><use xlink:href="#1" y="2.171"/><use xlink:href="#6" y="4.342"/><use xlink:href="#7" y="6.513"/><use xlink:href="#8" y="10.855"/><use xlink:href="#9" y="13.026"/><use xlink:href="#10" y="15.197"/></svg><svg x="2925"><use xlink:href="#a"/><use xlink:href="#b" x="-.004" y="17.343"/><use xlink:href="#1" y="2.171"/><use xlink:href="#6" y="4.342"/><use xlink:href="#7" y="6.513"/><use xlink:href="#8" y="10.855"/><use xlink:href="#9" y="13.026"/><use xlink:href="#10" y="15.197"/></svg><svg x="2990"><use xlink:href="#a"/><use xlink:href="#b" x="1.996" y="21.685"/><use xlink:href="#1" y="2.171"/><use xlink:href="#6" y="4.342"/><use xlink:href="#7" y="6.513"/><use xlink:href="#8" y="10.855"/><use xlink:href="#9" y="13.026"/><use xlink:href="#10" y="15.197"/><use xlink:href="#11" y="19.539"/><use xlink:href="#2" y="21.71"/></svg><svg x="3055"><use xlink:href="#a"/><use xlink:href="#b" x="1.996" y="21.685"/><use xlink:href="#1" y="2.171"/><use xlink:href="#6" y="4.342"/><use xlink:href="#7" y="6.513"/><use xlink:href="#8" y="10.855"/><use xlink:href="#9" y="13.026"/><use xlink:href="#10" y="15.197"/><use xlink:href="#11" y="19.539"/><use xlink:href="#2" y="21.71"/></svg><svg x="3120"><use xlink:href="#a"/><use xlink:href="#b" x="1.996" y="21.685"/><use xlink:href="#1" y="2.171"/><use xlink:href="#6" y="4.342"/><use xlink:href="#7" y="6.513"/><use xlink:href="#8" y="10.855"/><use xlink:href="#9" y="13.026"/><use xlink:href="#10" y="15.197"/><use xlink:href="#11" y="19.539"/><use xlink:href="#2" y="21.71"/></svg><svg x="3185"><use xlink:href="#a"/><use xlink:href="#b" x="1.996" y="21.685"/><use xlink:href="#1" y="2.171"/><use xlink:href="#6" y="4.342"/><use xlink:href="#7" y="6.513"/><use xlink:href="#8" y="10.855"/><use xlink:href="#9" y="13.026"/><use xlink:href="#10" y="15.197"/><use xlink:href="#12" y="19.539"/><use xlink:href="#2" y="21.71"/></svg><svg x="3250"><use xlink:href="#a"/><use xlink:href="#b" x="1.996" y="21.685"/><use xlink:href="#1" y="2.171"/><use xlink:href="#6" y="4.342"/><use xlink:href="#7" y="6.513"/><use xlink:href="#8" y="10.855"/><use xlink:href="#9" y="13.026"/><use xlink:href="#10" y="15.197"/><use xlink:href="#12" y="19.539"/><use xlink:href="#2" y="21.71"/></svg><svg x="3315"><use xlink:href="#a"/><use xlink:href="#b" x="2.996" y="21.685"/><use xlink:href="#1" y="2.171"/><use xlink:href="#6" y="4.342"/><use xlink:href="#7" y="6.513"/><use xlink:href="#8" y="10.855"/><use xlink:href="#9" y="13.026"/><use xlink:href="#10" y="15.197"/><use xlink:href="#12" y="19.539"/><use xlink:href="#3" y="21.71"/></svg><svg x="3380"><use xlink:href="#a"/><use xlink:href="#b" x="2.996" y="21.685"/><use xlink:href="#1" y="2.171"/><use xlink:href="#6" y="4.342"/><use xlink:href="#7" y="6.513"/><use xlink:href="#8" y="10.855"/><use xlink:href="#9" y="13.026"/><use xlink:href="#10" y="15.197"/><use xlink:href="#12" y="19.539"/><text y="23.38" class="g">→</text><text x="2.004" y="23.38" class="h">g</text><text x="3.006" y="23.38" class="i">oto</text><text x="7.014" y="23.38" class="i">goto</text></svg><svg x="3445"><use xlink:href="#a"/><use xlink:href="#b" x="3.996" y="21.685"/><use xlink:href="#1" y="2.171"/><use xlink:href="#6" y="4.342"/><use xlink:href="#7" y="6.513"/><use xlink:href="#8" y="10.855"/><use xlink:href="#9" y="13.026"/><use xlink:href="#10" y="15.197"/><use xlink:href="#12" y="19.539"/><text y="23.38" class="g">→</text><text x="2.004" y="23.38" class="h">go</text><text x="4.008" y="23.38" class="i">to</text><text x="7.014" y="23.38" class="i">goto</text></svg><svg x="3510"><use xlink:href="#a"/><use xlink:href="#b" x="4.996" y="21.685"/><use xlink:href="#1" y="2.171"/><use xlink:href="#6" y="4.342"/><use xlink:href="#7" y="6.513"/><use xlink:href="#8" y="10.855"/><use xlink:href="#9" y="13.026"/><use xlink:href="#10" y="15.197"/><use xlink:href="#12" y="19.539"/><text y="23.38" class="g">→</text><text x="2.004" y="23.38" class="r">got</text><text x="5.01" y="23.38" class="i">o</text><text x="7.014" y="23.38" class="i">goto</text></svg><svg x="3575"><use xlink:href="#a"/><use xlink:href="#b" x="5.996" y="21.685"/><use xlink:href="#1" y="2.171"/><use xlink:href="#6" y="4.342"/><use xlink:href="#7" y="6.513"/><use xlink:href="#8" y="10.855"/><use xlink:href="#9" y="13.026"/><use xlink:href="#10" y="15.197"/><use xlink:href="#12" y="19.539"/><use xlink:href="#13" y="21.71"/></svg><svg x="3640"><use xlink:href="#a"/><use xlink:href="#b" x="6.996" y="21.685"/><use xlink:href="#1" y="2.171"/><use xlink:href="#6" y="4.342"/><use xlink:href="#7" y="6.513"/><use xlink:href="#8" y="10.855"/><use xlink:href="#9" y="13.026"/><use xlink:href="#10" y="15.197"/><use xlink:href="#12" y="19.539"/><use xlink:href="#13" y="21.71"/></svg><svg x="3705"><use xlink:href="#a"/><use xlink:href="#b" x="7.996" y="21.685"/><use xlink:href="#1" y="2.171"/><use xlink:href="#6" y="4.342"/><use xlink:href="#7" y="6.513"/><use xlink:href="#8" y="10.855"/><use xlink:href="#9" y="13.026"/><use xlink:href="#10" y="15.197"/><use xlink:href="#12" y="19.539"/><text y="23.38" class="g">→</text><text x="2.004" y="23.38" class="h">goto</text><text x="7.014" y="23.38" class="j">d</text></svg><svg x="3770"><use xlink:href="#a"/><use xlink:href="#b" x="8.996" y="21.685"/><use xlink:href="#1" y="2.171"/><use xlink:href="#6" y="4.342"/><use xlink:href="#7" y="6.513"/><use xlink:href="#8" y="10.855"/><use xlink:href="#9" y="13.026"/><use xlink:href="#10" y="15.197"/><use xlink:href="#12" y="19.539"/><text y="23.38" class="g">→</text><text x="2.004" y="23.38" class="h">goto</text><text x="7.014" y="23.38" class="j">de</text></svg><svg x="3835"><use xlink:href="#a"/><use xlink:href="#b" x="9.996" y="21.685"/><use xlink:href="#1" y="2.171"/><use xlink:href="#6" y="4.342"/><use xlink:href="#7" y="6.513"/><use xlink:href="#8" y="10.855"/><use xlink:href="#9" y="13.026"/><use xlink:href="#10" y="15.197"/><use xlink:href="#12" y="19.539"/><text y="23.38" class="g">→</text><text x="2.004" y="23.38" class="h">goto</text><text x="7.014" y="23.38" class="j">deb</text></svg><svg x="3900"><use xlink:href="#a"/><use xlink:href="#b" x="10.996" y="21.685"/><use xlink:href="#1" y="2.171"/><use xlink:href="#6" y="4.342"/><use xlink:href="#7" y="6.513"/><use xlink:href="#8" y="10.855"/><use xlink:href="#9" y="13.026"/><use xlink:href="#10" y="15.197"/><use xlink:href="#12" y="19.539"/><text y="23.38" class="g">→</text><text x="2.004" y="23.38" class="h">goto</text><text x="7.014" y="23.38" class="j">debu</text></svg><svg x="3965"><use xlink:href="#a"/><use xlink:href="#b" x="11.996" y="21.685"/><use xlink:href="#1" y="2.171"/><use xlink:href="#6" y="4.342"/><use xlink:href="#7" y="6.513"/><use xlink:href="#8" y="10.855"/><use xlink:href="#9" y="13.026"/><use xlink:href="#10" y="15.197"/><use xlink:href="#12" y="19.539"/><text y="23.38" class="g">→</text><text x="2.004" y="23.38" class="h">goto</text><text x="7.014" y="23.38" class="j">debug</text></svg><svg x="4030"><use xlink:href="#a"/><use xlink:href="#b" x="12.996" y="21.685"/><use xlink:href="#1" y="2.171"/><use xlink:href="#6" y="4.342"/><use xlink:href="#7" y="6.513"/><use xlink:href="#8" y="10.855"/><use xlink:href="#9" y="13.026"/><use xlink:href="#10" y="15.197"/><use xlink:href="#12" y="19.539"/><text y="23.38" class="g">→</text><text x="2.004" y="23.38" class="h">goto</text><text x="7.014" y="23.38" class="j">debug-</text></svg><svg x="4095"><use xlink:href="#a"/><use xlink:href="#b" x="13.996" y="21.685"/><use xlink:href="#1" y="2.171"/><use xlink:href="#6" y="4.342"/><use xlink:href="#7" y="6.513"/><use xlink:href="#8" y="10.855"/><use xlink:href="#9" y="13.026"/><use xlink:href="#10" y="15.197"/><use xlink:href="#12" y="19.539"/><text y="23.38" class="g">→</text><text x="2.004" y="23.38" class="h">goto</text><text x="7.014" y="23.38" class="j">debug-j</text></svg><svg x="4160"><use xlink:href="#a"/><use xlink:href="#b" x="14.996" y="21.685"/><use xlink:href="#1" y="2.171"/><use xlink:href="#6" y="4.342"/><use xlink:href="#7" y="6.513"/><use xlink:href="#8" y="10.855"/><use xlink:href="#9" y="13.026"/><use xlink:href="#10" y="15.197"/><use xlink:href="#12" y="19.539"/><text y="23.38" class="g">→</text><text x="2.004" y="23.38" class="h">goto</text><text x="7.014" y="23.38" class="j">debug-js</text></svg><svg x="4225"><use xlink:href="#a"/><use xlink:href="#b" x="15.996" y="21.685"/><use xlink:href="#1" y="2.171"/><use xlink:href="#6" y="4.342"/><use xlink:href="#7" y="6.513"/><use xlink:href="#8" y="10.855"/><use xlink:href="#9" y="13.026"/><use xlink:href="#10" y="15.197"/><use xlink:href="#12" y="19.539"/><text y="23.38" class="g">→</text><text x="2.004" y="23.38" class="h">goto</text><text x="7.014" y="23.38" class="j">debug-js/</text></svg><svg x="4290"><use xlink:href="#a"/><use xlink:href="#b" x="16.996" y="21.685"/><use xlink:href="#1" y="2.171"/><use xlink:href="#6" y="4.342"/><use xlink:href="#7" y="6.513"/><use xlink:href="#8" y="10.855"/><use xlink:href="#9" y="13.026"/><use xlink:href="#10" y="15.197"/><use xlink:href="#12" y="19.539"/><text y="23.38" class="g">→</text><text x="2.004" y="23.38" class="h">goto</text><text x="7.014" y="23.38" class="j">debug-js/d</text></svg><svg x="4355"><use xlink:href="#a"/><use xlink:href="#b" x="17.996" y="21.685"/><use xlink:href="#1" y="2.171"/><use xlink:href="#6" y="4.342"/><use xlink:href="#7" y="6.513"/><use xlink:href="#8" y="10.855"/><use xlink:href="#9" y="13.026"/><use xlink:href="#10" y="15.197"/><use xlink:href="#12" y="19.539"/><text y="23.38" class="g">→</text><text x="2.004" y="23.38" class="h">goto</text><text x="7.014" y="23.38" class="j">debug-js/de</text></svg><svg x="4420"><use xlink:href="#a"/><use xlink:href="#b" x="18.996" y="21.685"/><use xlink:href="#1" y="2.171"/><use xlink:href="#6" y="4.342"/><use xlink:href="#7" y="6.513"/><use xlink:href="#8" y="10.855"/><use xlink:href="#9" y="13.026"/><use xlink:href="#10" y="15.197"/><use xlink:href="#12" y="19.539"/><text y="23.38" class="g">→</text><text x="2.004" y="23.38" class="h">goto</text><text x="7.014" y="23.38" class="j">debug-js/deb</text></svg><svg x="4485"><use xlink:href="#a"/><use xlink:href="#b" x="19.996" y="21.685"/><use xlink:href="#1" y="2.171"/><use xlink:href="#6" y="4.342"/><use xlink:href="#7" y="6.513"/><use xlink:href="#8" y="10.855"/><use xlink:href="#9" y="13.026"/><use xlink:href="#10" y="15.197"/><use xlink:href="#12" y="19.539"/><text y="23.38" class="g">→</text><text x="2.004" y="23.38" class="h">goto</text><text x="7.014" y="23.38" class="j">debug-js/debu</text></svg><svg x="4550"><use xlink:href="#a"/><use xlink:href="#b" x="20.996" y="21.685"/><use xlink:href="#1" y="2.171"/><use xlink:href="#6" y="4.342"/><use xlink:href="#7" y="6.513"/><use xlink:href="#8" y="10.855"/><use xlink:href="#9" y="13.026"/><use xlink:href="#10" y="15.197"/><use xlink:href="#12" y="19.539"/><use xlink:href="#14" y="21.71"/></svg><svg x="4615"><use xlink:href="#a"/><use xlink:href="#b" x="20.996" y="21.685"/><use xlink:href="#1" y="2.171"/><use xlink:href="#6" y="4.342"/><use xlink:href="#7" y="6.513"/><use xlink:href="#8" y="10.855"/><use xlink:href="#9" y="13.026"/><use xlink:href="#10" y="15.197"/><use xlink:href="#12" y="19.539"/><use xlink:href="#14" y="21.71"/></svg><svg x="4680"><use xlink:href="#a"/><use xlink:href="#b" x="-.004" y="23.856"/><use xlink:href="#1" y="2.171"/><use xlink:href="#6" y="4.342"/><use xlink:href="#7" y="6.513"/><use xlink:href="#8" y="10.855"/><use xlink:href="#9" y="13.026"/><use xlink:href="#10" y="15.197"/><use xlink:href="#12" y="19.539"/><use xlink:href="#14" y="21.71"/></svg><svg x="4745"><use xlink:href="#a"/><use xlink:href="#b" x="-.004" y="23.856"/><use xlink:href="#1" y="2.171"/><use xlink:href="#6" y="4.342"/><use xlink:href="#7" y="6.513"/><use xlink:href="#8" y="10.855"/><use xlink:href="#9" y="13.026"/><use xlink:href="#10" y="15.197"/><use xlink:href="#12" y="19.539"/><use xlink:href="#14" y="21.71"/></svg><svg x="4810"><use xlink:href="#a"/><use xlink:href="#b" x="33.996" y="23.856"/><use xlink:href="#1" y="2.171"/><use xlink:href="#6" y="4.342"/><use xlink:href="#7" y="6.513"/><use xlink:href="#8" y="10.855"/><use xlink:href="#9" y="13.026"/><use xlink:href="#10" y="15.197"/><use xlink:href="#12" y="19.539"/><use xlink:href="#14" y="21.71"/><use xlink:href="#15" y="23.881"/></svg><svg x="4875"><use xlink:href="#a"/><use xlink:href="#b" x="-.004" y="26.027"/><use xlink:href="#1" y="2.171"/><use xlink:href="#6" y="4.342"/><use xlink:href="#7" y="6.513"/><use xlink:href="#8" y="10.855"/><use xlink:href="#9" y="13.026"/><use xlink:href="#10" y="15.197"/><use xlink:href="#12" y="19.539"/><use xlink:href="#14" y="21.71"/><use xlink:href="#15" y="23.881"/></svg><svg x="4940"><use xlink:href="#a"/><use xlink:href="#b" x="-.004" y="28.198"/><use xlink:href="#1" y="2.171"/><use xlink:href="#6" y="4.342"/><use xlink:href="#7" y="6.513"/><use xlink:href="#8" y="10.855"/><use xlink:href="#9" y="13.026"/><use xlink:href="#10" y="15.197"/><use xlink:href="#12" y="19.539"/><use xlink:href="#14" y="21.71"/><use xlink:href="#15" y="23.881"/><use xlink:href="#16" y="26.052"/></svg><svg x="5005"><use xlink:href="#a"/><use xlink:href="#b" x="53.996" y="28.198"/><use xlink:href="#1" y="2.171"/><use xlink:href="#6" y="4.342"/><use xlink:href="#7" y="6.513"/><use xlink:href="#8" y="10.855"/><use xlink:href="#9" y="13.026"/><use xlink:href="#10" y="15.197"/><use xlink:href="#12" y="19.539"/><use xlink:href="#14" y="21.71"/><use xlink:href="#15" y="23.881"/><use xlink:href="#16" y="26.052"/><use xlink:href="#17" y="28.223"/></svg><svg x="5070"><use xlink:href="#a"/><use xlink:href="#b" x="-.004" y="30.369"/><use xlink:href="#1" y="2.171"/><use xlink:href="#6" y="4.342"/><use xlink:href="#7" y="6.513"/><use xlink:href="#8" y="10.855"/><use xlink:href="#9" y="13.026"/><use xlink:href="#10" y="15.197"/><use xlink:href="#12" y="19.539"/><use xlink:href="#14" y="21.71"/><use xlink:href="#15" y="23.881"/><use xlink:href="#16" y="26.052"/><use xlink:href="#17" y="28.223"/></svg><svg x="5135"><use xlink:href="#a"/><use xlink:href="#b" x="-.004" y="30.369"/><use xlink:href="#1" y="2.171"/><use xlink:href="#6" y="4.342"/><use xlink:href="#7" y="6.513"/><use xlink:href="#8" y="10.855"/><use xlink:href="#9" y="13.026"/><use xlink:href="#10" y="15.197"/><use xlink:href="#12" y="19.539"/><use xlink:href="#14" y="21.71"/><use xlink:href="#15" y="23.881"/><use xlink:href="#16" y="26.052"/><use xlink:href="#17" y="28.223"/></svg><svg x="5200"><use xlink:href="#a"/><use xlink:href="#b" x="-.004" y="30.369"/><use xlink:href="#1" y="2.171"/><use xlink:href="#6" y="4.342"/><use xlink:href="#7" y="6.513"/><use xlink:href="#8" y="10.855"/><use xlink:href="#9" y="13.026"/><use xlink:href="#10" y="15.197"/><use xlink:href="#12" y="19.539"/><use xlink:href="#14" y="21.71"/><use xlink:href="#15" y="23.881"/><use xlink:href="#16" y="26.052"/><use xlink:href="#17" y="28.223"/></svg><svg x="5265"><use xlink:href="#a"/><use xlink:href="#b" x="1.996" y="34.711"/><use xlink:href="#1" y="2.171"/><use xlink:href="#6" y="4.342"/><use xlink:href="#7" y="6.513"/><use xlink:href="#8" y="10.855"/><use xlink:href="#9" y="13.026"/><use xlink:href="#10" y="15.197"/><use xlink:href="#12" y="19.539"/><use xlink:href="#14" y="21.71"/><use xlink:href="#15" y="23.881"/><use xlink:href="#16" y="26.052"/><use xlink:href="#17" y="28.223"/><use xlink:href="#18" y="32.565"/><use xlink:href="#2" y="34.736"/></svg><svg x="5330"><use xlink:href="#a"/><use xlink:href="#b" x="1.996" y="34.711"/><use xlink:href="#1" y="2.171"/><use xlink:href="#6" y="4.342"/><use xlink:href="#7" y="6.513"/><use xlink:href="#8" y="10.855"/><use xlink:href="#9" y="13.026"/><use xlink:href="#10" y="15.197"/><use xlink:href="#12" y="19.539"/><use xlink:href="#14" y="21.71"/><use xlink:href="#15" y="23.881"/><use xlink:href="#16" y="26.052"/><use xlink:href="#17" y="28.223"/><use xlink:href="#18" y="32.565"/><use xlink:href="#2" y="34.736"/></svg><svg x="5395"><use xlink:href="#a"/><use xlink:href="#b" x="1.996" y="34.711"/><use xlink:href="#1" y="2.171"/><use xlink:href="#6" y="4.342"/><use xlink:href="#7" y="6.513"/><use xlink:href="#8" y="10.855"/><use xlink:href="#9" y="13.026"/><use xlink:href="#10" y="15.197"/><use xlink:href="#12" y="19.539"/><use xlink:href="#14" y="21.71"/><use xlink:href="#15" y="23.881"/><use xlink:href="#16" y="26.052"/><use xlink:href="#17" y="28.223"/><use xlink:href="#18" y="32.565"/><use xlink:href="#2" y="34.736"/></svg><svg x="5460"><use xlink:href="#a"/><use xlink:href="#b" x="1.996" y="34.711"/><use xlink:href="#1" y="2.171"/><use xlink:href="#6" y="4.342"/><use xlink:href="#7" y="6.513"/><use xlink:href="#8" y="10.855"/><use xlink:href="#9" y="13.026"/><use xlink:href="#10" y="15.197"/><use xlink:href="#12" y="19.539"/><use xlink:href="#14" y="21.71"/><use xlink:href="#15" y="23.881"/><use xlink:href="#16" y="26.052"/><use xlink:href="#17" y="28.223"/><use xlink:href="#19" y="32.565"/><use xlink:href="#2" y="34.736"/></svg><svg x="5525"><use xlink:href="#a"/><use xlink:href="#b" x="1.996" y="34.711"/><use xlink:href="#1" y="2.171"/><use xlink:href="#6" y="4.342"/><use xlink:href="#7" y="6.513"/><use xlink:href="#8" y="10.855"/><use xlink:href="#9" y="13.026"/><use xlink:href="#10" y="15.197"/><use xlink:href="#12" y="19.539"/><use xlink:href="#14" y="21.71"/><use xlink:href="#15" y="23.881"/><use xlink:href="#16" y="26.052"/><use xlink:href="#17" y="28.223"/><use xlink:href="#19" y="32.565"/><use xlink:href="#2" y="34.736"/></svg><svg x="5590"><use xlink:href="#a"/><use xlink:href="#b" x="2.996" y="34.711"/><use xlink:href="#1" y="2.171"/><use xlink:href="#6" y="4.342"/><use xlink:href="#7" y="6.513"/><use xlink:href="#8" y="10.855"/><use xlink:href="#9" y="13.026"/><use xlink:href="#10" y="15.197"/><use xlink:href="#12" y="19.539"/><use xlink:href="#14" y="21.71"/><use xlink:href="#15" y="23.881"/><use xlink:href="#16" y="26.052"/><use xlink:href="#17" y="28.223"/><use xlink:href="#19" y="32.565"/><use xlink:href="#3" y="34.736"/></svg><svg x="5655"><use xlink:href="#a"/><use xlink:href="#b" x="2.996" y="34.711"/><use xlink:href="#1" y="2.171"/><use xlink:href="#6" y="4.342"/><use xlink:href="#7" y="6.513"/><use xlink:href="#8" y="10.855"/><use xlink:href="#9" y="13.026"/><use xlink:href="#10" y="15.197"/><use xlink:href="#12" y="19.539"/><use xlink:href="#14" y="21.71"/><use xlink:href="#15" y="23.881"/><use xlink:href="#16" y="26.052"/><use xlink:href="#17" y="28.223"/><use xlink:href="#19" y="32.565"/><text y="36.406" class="g">→</text><text x="2.004" y="36.406" class="h">g</text><text x="3.006" y="36.406" class="i">oto</text><text x="7.014" y="36.406" class="i">debug-js/debug</text></svg><svg x="5720"><use xlink:href="#a"/><use xlink:href="#b" x="3.996" y="34.711"/><use xlink:href="#1" y="2.171"/><use xlink:href="#6" y="4.342"/><use xlink:href="#7" y="6.513"/><use xlink:href="#8" y="10.855"/><use xlink:href="#9" y="13.026"/><use xlink:href="#10" y="15.197"/><use xlink:href="#12" y="19.539"/><use xlink:href="#14" y="21.71"/><use xlink:href="#15" y="23.881"/><use xlink:href="#16" y="26.052"/><use xlink:href="#17" y="28.223"/><use xlink:href="#19" y="32.565"/><text y="36.406" class="g">→</text><text x="2.004" y="36.406" class="h">go</text><text x="4.008" y="36.406" class="i">to</text><text x="7.014" y="36.406" class="i">debug-js/debug</text></svg><svg x="5785"><use xlink:href="#a"/><use xlink:href="#b" x="4.996" y="34.711"/><use xlink:href="#1" y="2.171"/><use xlink:href="#6" y="4.342"/><use xlink:href="#7" y="6.513"/><use xlink:href="#8" y="10.855"/><use xlink:href="#9" y="13.026"/><use xlink:href="#10" y="15.197"/><use xlink:href="#12" y="19.539"/><use xlink:href="#14" y="21.71"/><use xlink:href="#15" y="23.881"/><use xlink:href="#16" y="26.052"/><use xlink:href="#17" y="28.223"/><use xlink:href="#19" y="32.565"/><text y="36.406" class="g">→</text><text x="2.004" y="36.406" class="r">got</text><text x="5.01" y="36.406" class="i">o</text><text x="7.014" y="36.406" class="i">debug-js/debug</text></svg><svg x="5850"><use xlink:href="#a"/><use xlink:href="#b" x="5.996" y="34.711"/><use xlink:href="#1" y="2.171"/><use xlink:href="#6" y="4.342"/><use xlink:href="#7" y="6.513"/><use xlink:href="#8" y="10.855"/><use xlink:href="#9" y="13.026"/><use xlink:href="#10" y="15.197"/><use xlink:href="#12" y="19.539"/><use xlink:href="#14" y="21.71"/><use xlink:href="#15" y="23.881"/><use xlink:href="#16" y="26.052"/><use xlink:href="#17" y="28.223"/><use xlink:href="#19" y="32.565"/><text y="36.406" class="g">→</text><text x="2.004" y="36.406" class="h">goto</text><text x="7.014" y="36.406" class="i">debug-js/debug</text></svg><svg x="5915"><use xlink:href="#a"/><use xlink:href="#b" x="5.996" y="34.711"/><use xlink:href="#1" y="2.171"/><use xlink:href="#6" y="4.342"/><use xlink:href="#7" y="6.513"/><use xlink:href="#8" y="10.855"/><use xlink:href="#9" y="13.026"/><use xlink:href="#10" y="15.197"/><use xlink:href="#12" y="19.539"/><use xlink:href="#14" y="21.71"/><use xlink:href="#15" y="23.881"/><use xlink:href="#16" y="26.052"/><use xlink:href="#17" y="28.223"/><use xlink:href="#19" y="32.565"/><use xlink:href="#6" y="34.736"/></svg><svg x="5980"><use xlink:href="#a"/><use xlink:href="#b" x="5.996" y="34.711"/><use xlink:href="#1" y="2.171"/><use xlink:href="#6" y="4.342"/><use xlink:href="#7" y="6.513"/><use xlink:href="#8" y="10.855"/><use xlink:href="#9" y="13.026"/><use xlink:href="#10" y="15.197"/><use xlink:href="#12" y="19.539"/><use xlink:href="#14" y="21.71"/><use xlink:href="#15" y="23.881"/><use xlink:href="#16" y="26.052"/><use xlink:href="#17" y="28.223"/><use xlink:href="#19" y="32.565"/><use xlink:href="#6" y="34.736"/></svg><svg x="6045"><use xlink:href="#a"/><use xlink:href="#b" x="-.004" y="36.882"/><use xlink:href="#1" y="2.171"/><use xlink:href="#6" y="4.342"/><use xlink:href="#7" y="6.513"/><use xlink:href="#8" y="10.855"/><use xlink:href="#9" y="13.026"/><use xlink:href="#10" y="15.197"/><use xlink:href="#12" y="19.539"/><use xlink:href="#14" y="21.71"/><use xlink:href="#15" y="23.881"/><use xlink:href="#16" y="26.052"/><use xlink:href="#17" y="28.223"/><use xlink:href="#19" y="32.565"/><use xlink:href="#6" y="34.736"/></svg><svg x="6110"><use xlink:href="#a"/><use xlink:href="#b" x="-.004" y="36.882"/><use xlink:href="#1" y="2.171"/><use xlink:href="#6" y="4.342"/><use xlink:href="#7" y="6.513"/><use xlink:href="#8" y="10.855"/><use xlink:href="#9" y="13.026"/><use xlink:href="#10" y="15.197"/><use xlink:href="#12" y="19.539"/><use xlink:href="#14" y="21.71"/><use xlink:href="#15" y="23.881"/><use xlink:href="#16" y="26.052"/><use xlink:href="#17" y="28.223"/><use xlink:href="#19" y="32.565"/><use xlink:href="#6" y="34.736"/></svg><svg x="6175"><use xlink:href="#a"/><use xlink:href="#b" x="38.996" y="36.882"/><use xlink:href="#1" y="2.171"/><use xlink:href="#6" y="4.342"/><use xlink:href="#7" y="6.513"/><use xlink:href="#8" y="10.855"/><use xlink:href="#9" y="13.026"/><use xlink:href="#10" y="15.197"/><use xlink:href="#12" y="19.539"/><use xlink:href="#14" y="21.71"/><use xlink:href="#15" y="23.881"/><use xlink:href="#16" y="26.052"/><use xlink:href="#17" y="28.223"/><use xlink:href="#19" y="32.565"/><use xlink:href="#6" y="34.736"/><use xlink:href="#7" y="36.907"/></svg><svg x="6240"><use xlink:href="#a"/><use xlink:href="#b" x="-.004" y="39.053"/><use xlink:href="#1" y="2.171"/><use xlink:href="#6" y="4.342"/><use xlink:href="#7" y="6.513"/><use xlink:href="#8" y="10.855"/><use xlink:href="#9" y="13.026"/><use xlink:href="#10" y="15.197"/><use xlink:href="#12" y="19.539"/><use xlink:href="#14" y="21.71"/><use xlink:href="#15" y="23.881"/><use xlink:href="#16" y="26.052"/><use xlink:href="#17" y="28.223"/><use xlink:href="#19" y="32.565"/><use xlink:href="#6" y="34.736"/><use xlink:href="#7" y="36.907"/></svg><svg x="6305"><use xlink:href="#a"/><use xlink:href="#b" x="-.004" y="39.053"/><use xlink:href="#1" y="2.171"/><use xlink:href="#6" y="4.342"/><use xlink:href="#7" y="6.513"/><use xlink:href="#8" y="10.855"/><use xlink:href="#9" y="13.026"/><use xlink:href="#10" y="15.197"/><use xlink:href="#12" y="19.539"/><use xlink:href="#14" y="21.71"/><use xlink:href="#15" y="23.881"/><use xlink:href="#16" y="26.052"/><use xlink:href="#17" y="28.223"/><use xlink:href="#19" y="32.565"/><use xlink:href="#6" y="34.736"/><use xlink:href="#7" y="36.907"/></svg><svg x="6370"><use xlink:href="#a"/><use xlink:href="#b" x="-.004" y="39.053"/><use xlink:href="#1" y="2.171"/><use xlink:href="#6" y="4.342"/><use xlink:href="#7" y="6.513"/><use xlink:href="#8" y="10.855"/><use xlink:href="#9" y="13.026"/><use xlink:href="#10" y="15.197"/><use xlink:href="#12" y="19.539"/><use xlink:href="#14" y="21.71"/><use xlink:href="#15" y="23.881"/><use xlink:href="#16" y="26.052"/><use xlink:href="#17" y="28.223"/><use xlink:href="#19" y="32.565"/><use xlink:href="#6" y="34.736"/><use xlink:href="#7" y="36.907"/></svg><svg x="6435"><use xlink:href="#a"/><use xlink:href="#b" x="1.996" y="43.395"/><use xlink:href="#1" y="2.171"/><use xlink:href="#6" y="4.342"/><use xlink:href="#7" y="6.513"/><use xlink:href="#8" y="10.855"/><use xlink:href="#9" y="13.026"/><use xlink:href="#10" y="15.197"/><use xlink:href="#12" y="19.539"/><use xlink:href="#14" y="21.71"/><use xlink:href="#15" y="23.881"/><use xlink:href="#16" y="26.052"/><use xlink:href="#17" y="28.223"/><use xlink:href="#19" y="32.565"/><use xlink:href="#6" y="34.736"/><use xlink:href="#7" y="36.907"/><use xlink:href="#8" y="41.249"/><use xlink:href="#2" y="43.42"/></svg><svg x="6500"><use xlink:href="#a"/><use xlink:href="#b" x="1.996" y="43.395"/><use xlink:href="#1" y="2.171"/><use xlink:href="#6" y="4.342"/><use xlink:href="#7" y="6.513"/><use xlink:href="#8" y="10.855"/><use xlink:href="#9" y="13.026"/><use xlink:href="#10" y="15.197"/><use xlink:href="#12" y="19.539"/><use xlink:href="#14" y="21.71"/><use xlink:href="#15" y="23.881"/><use xlink:href="#16" y="26.052"/><use xlink:href="#17" y="28.223"/><use xlink:href="#19" y="32.565"/><use xlink:href="#6" y="34.736"/><use xlink:href="#7" y="36.907"/><use xlink:href="#8" y="41.249"/><use xlink:href="#2" y="43.42"/></svg><svg x="6565"><use xlink:href="#a"/><use xlink:href="#b" x="1.996" y="43.395"/><use xlink:href="#1" y="2.171"/><use xlink:href="#6" y="4.342"/><use xlink:href="#7" y="6.513"/><use xlink:href="#8" y="10.855"/><use xlink:href="#9" y="13.026"/><use xlink:href="#10" y="15.197"/><use xlink:href="#12" y="19.539"/><use xlink:href="#14" y="21.71"/><use xlink:href="#15" y="23.881"/><use xlink:href="#16" y="26.052"/><use xlink:href="#17" y="28.223"/><use xlink:href="#19" y="32.565"/><use xlink:href="#6" y="34.736"/><use xlink:href="#7" y="36.907"/><use xlink:href="#8" y="41.249"/><use xlink:href="#2" y="43.42"/></svg><svg x="6630"><use xlink:href="#a"/><use xlink:href="#b" x="1.996" y="43.395"/><use xlink:href="#1" y="2.171"/><use xlink:href="#6" y="4.342"/><use xlink:href="#7" y="6.513"/><use xlink:href="#8" y="10.855"/><use xlink:href="#9" y="13.026"/><use xlink:href="#10" y="15.197"/><use xlink:href="#12" y="19.539"/><use xlink:href="#14" y="21.71"/><use xlink:href="#15" y="23.881"/><use xlink:href="#16" y="26.052"/><use xlink:href="#17" y="28.223"/><use xlink:href="#19" y="32.565"/><use xlink:href="#6" y="34.736"/><use xlink:href="#7" y="36.907"/><use xlink:href="#8" y="41.249"/><use xlink:href="#2" y="43.42"/></svg><svg x="6695"><use xlink:href="#a"/><use xlink:href="#b" x="1.996" y="43.395"/><use xlink:href="#1" y="2.171"/><use xlink:href="#6" y="4.342"/><use xlink:href="#7" y="6.513"/><use xlink:href="#8" y="10.855"/><use xlink:href="#9" y="13.026"/><use xlink:href="#10" y="15.197"/><use xlink:href="#12" y="19.539"/><use xlink:href="#14" y="21.71"/><use xlink:href="#15" y="23.881"/><use xlink:href="#16" y="26.052"/><use xlink:href="#17" y="28.223"/><use xlink:href="#19" y="32.565"/><use xlink:href="#6" y="34.736"/><use xlink:href="#7" y="36.907"/><use xlink:href="#8" y="41.249"/><use xlink:href="#2" y="43.42"/></svg><svg x="6760"><use xlink:href="#a"/><use xlink:href="#b" x="-.004" y="45.566"/><use xlink:href="#1" y="2.171"/><use xlink:href="#6" y="4.342"/><use xlink:href="#7" y="6.513"/><use xlink:href="#8" y="10.855"/><use xlink:href="#9" y="13.026"/><use xlink:href="#10" y="15.197"/><use xlink:href="#12" y="19.539"/><use xlink:href="#14" y="21.71"/><use xlink:href="#15" y="23.881"/><use xlink:href="#16" y="26.052"/><use xlink:href="#17" y="28.223"/><use xlink:href="#19" y="32.565"/><use xlink:href="#6" y="34.736"/><use xlink:href="#7" y="36.907"/><use xlink:href="#8" y="41.249"/><use xlink:href="#2" y="43.42"/></svg></svg></g></g></svg></svg>